PathFileType	4	(X/Y/Z)	T1_P2_NoVision_NoMovement_2_0-733.trc
DataRate	CameraRate	NumFrames	NumMarkers	Units	OrigDataRate	OrigDataStartFrame	OrigNumFrames
60	60	5	27	m	60	274	733
Frame#	Time	RHip			RKnee			RAnkle			RBigToe			RSmallToe			RHeel			LHip			LKnee			LAnkle			LBigToe			LSmallToe			LHeel			Neck			Head			Nose			RShoulder			RElbow			RWrist			RThumb			RIndex			RPinky			LShoulder			LElbow			LWrist			LThumb			LIndex			LPinky		
		X1	Y1	Z1	X2	Y2	Z2	X3	Y3	Z3	X4	Y4	Z4	X5	Y5	Z5	X6	Y6	Z6	X7	Y7	Z7	X8	Y8	Z8	X9	Y9	Z9	X10	Y10	Z10	X11	Y11	Z11	X12	Y12	Z12	X13	Y13	Z13	X14	Y14	Z14	X15	Y15	Z15	X16	Y16	Z16	X17	Y17	Z17	X18	Y18	Z18	X19	Y19	Z19	X20	Y20	Z20	X21	Y21	Z21	X22	Y22	Z22	X23	Y23	Z23	X24	Y24	Z24	X25	Y25	Z25	X26	Y26	Z26	X27	Y27	Z27
275	4.583333333333333	464.902405112833	3643.120267751943	536.2884967773927	867.4142778122375	3688.2125244126005	551.2559857572566	1243.3241266659847	3754.1415745606378	620.2323788883332	1320.5468960040002	3624.651470414079	566.6619133429397	1309.8931489779036	3674.999051214736	519.9785057841814	1275.621211389816	3742.8703597628773	630.940990083757	457.97437230129384	3518.820964472643	729.4261014713015	862.0910483420466	3551.235370576843	740.8883909532682	1228.1945368741972	3606.2784130089885	728.2182232391465	1304.8195246333387	3490.5736026435357	674.7750598345576	1264.945465580892	3438.2116327996064	702.253620674402	1262.8352863203136	3613.440223881098	706.0391517936845	-113.23418455960685	3563.3331620809754	643.3989190665609	-367.81320823069944	3486.2957795106504	608.3796708603027	-224.7748546929305	3440.3912705130233	573.4892520143658	-35.78597330896281	3728.1306683572793	530.445256117714	205.65408626116056	3658.5210213863083	425.28941304712737	360.5114459234841	3475.7606334737925	497.49017556949843	451.8604759025813	3538.1691018366982	619.2049587176335	455.6123575257486	3503.506013179012	610.0797924272944	487.1692020588041	3493.5557392529945	590.7356436321363	-26.536855060683905	3506.2634608552244	783.9859294049563	218.74078284060965	3403.9062929475463	752.1077402855656	361.1763103330571	3402.829017902097	586.0955254160374	430.34334664648236	3445.759359572921	506.09712827933265	445.3757398904428	3448.177357130562	503.9942837989404	467.7991531337886	3425.952622422981	563.1370707570804
276	4.6	464.21498315734163	3638.7584701433734	533.27158796819	865.1938965809935	3677.5699296084417	546.0664070560562	1243.7253291724953	3753.365074976169	619.9513208544067	1320.5234931732532	3624.661983053532	566.7204313245888	1307.7650459831264	3673.76545541461	519.8789224189021	1275.7694128852438	3743.035293420131	631.034487745974	457.10369201972935	3519.570258955484	729.5574743898095	861.3458974119303	3548.7893210139728	739.8801969939078	1227.8412050920583	3604.1330605840762	727.7295061996356	1305.421148799438	3492.285418829774	673.8979309632882	1264.1996938883271	3437.7924840304404	702.1888300984461	1264.1902668896182	3611.68694455658	705.5601826409888	-113.20073029088954	3563.3751479250973	643.3788895432442	-367.3198538253687	3486.0357419472516	608.2053396987222	-224.23077668106117	3440.7588647672346	573.5878297419638	-37.0366121300209	3731.8604170125654	533.9174846544315	205.6613358476141	3658.7059585862353	425.36973227665277	360.06544675016085	3475.85206664226	497.50596543788214	449.16443352146837	3534.24421166067	615.3760384211469	455.31636167869704	3503.927689480629	610.1147589866563	488.3636523440092	3498.2876214186194	592.816486801807	-25.60885070659846	3506.662981811838	784.1970855542302	218.19052786345506	3399.4235538287257	750.558691705709	361.72124153609224	3402.8718371741443	586.1666175116836	429.43769820490525	3447.157217026278	505.56841777926627	445.66077500305033	3448.642321816683	504.0988239329366	468.3541790584534	3429.0109077771876	564.3465418899955
277	4.616666666666666	465.4150555992854	3634.649054688003	530.3836175946223	863.9599857624801	3670.097541047153	541.6889634555619	1244.747848740596	3752.877431353978	619.7003018562488	1318.592214946944	3620.960091754526	563.6469456048732	1306.3079626443007	3672.7244305269032	519.7148070181898	1276.1075796627974	3742.8253051360143	630.3972398799195	457.407737129317	3520.935394306091	729.6125388672746	861.7402446448409	3546.544548757584	738.8343065276067	1228.3082631723382	3602.946350798964	726.6377065491511	1307.0592075236614	3496.914686389857	673.2764007375984	1264.104912029412	3437.7315709724344	702.1271378271715	1265.8333912842882	3610.526038213989	704.4398329703143	-113.16240717070018	3563.5136951067334	643.426095667541	-366.12189339069323	3485.19233973004	607.7039482474424	-223.06010283558675	3441.7728360556025	574.0456936568705	-38.635095137223416	3736.324310672081	538.068908348413	205.40628972464967	3659.268070525655	425.61225722344165	359.8798857557152	3475.7146011000114	497.2959262705298	446.3536030082388	3532.411058256547	612.8905964707872	455.70678857794263	3505.137532010919	610.3471032996417	490.6288844694098	3506.164767574711	595.3908333924384	-25.724274235809894	3506.8353132259563	784.3571183163414	217.72586611491022	3395.7084583613923	749.2829670677137	362.7334223002776	3403.043457007947	586.3106070703253	427.6337608065236	3448.8841875589583	504.71727446704034	446.4507048223057	3449.6215945892354	503.82608758638787	468.6906799552457	3430.8543181983687	564.2973603859151
278	4.633333333333334	467.1651617297196	3632.497465210233	528.8230894205614	863.6933671887631	3666.504234818934	539.9475759588473	1245.5674252721026	3752.0200385136714	619.239442838277	1316.4697577006932	3616.9560408007073	560.2707275794613	1305.5933774896293	3672.0394375309534	519.4884736730946	1276.6269808142433	3741.461147481744	629.8991525617733	458.38137647319144	3523.132047536967	729.9372398421106	862.2441756384583	3544.9437725081843	738.0615721803052	1228.8899774201627	3603.0043814047744	725.702335668405	1308.9070840383179	3501.830149583583	673.7663928284451	1264.4177232070856	3437.9407310865163	702.1490885511937	1266.8754566424163	3609.8421791677065	703.1196441698798	-113.14748727279893	3563.625590998568	643.4668247350792	-364.51263709897364	3484.040576857762	607.0411882458119	-222.5538487895521	3442.3872822993603	574.3730045461674	-39.73093984945063	3738.1436055042986	539.8914213743786	204.8195495077846	3660.2309722044465	426.04192977951624	359.90200455574325	3475.7063811205903	497.22305446702103	443.90585310030843	3532.0569003382734	611.9608310722944	456.553936600665	3506.770392003911	610.7439264973824	493.35361445889134	3515.9740243366623	599.0413144975951	-26.972131787543468	3507.1270836005324	784.6506028076824	217.7324546321484	3395.5060370089013	750.2268748532105	363.2288090670037	3403.1180644166384	586.3731023823874	425.708610549721	3450.309575613025	504.11796625539614	447.498708517822	3450.8587237252054	502.92104269426443	468.46535381760043	3429.5547665598706	563.007905813257
279	4.65	468.06137897080976	3631.9788786506297	528.4875944029072	863.6254245332036	3665.8739632681963	540.6735697532752	1246.6986328125897	3751.2601340002684	618.9190103714529	1315.4611907467058	3614.9737498863187	558.2870718437483	1306.010711056618	3671.8335921325947	519.4722302679428	1277.1330440490835	3739.557721031687	630.0428835935364	459.22731871272777	3525.5991916893936	730.5353815282645	861.6054819576973	3543.6439652601916	737.5552860770266	1229.6505124017046	3603.762371686386	725.3810957303215	1309.882489728566	3503.073405251266	674.9022906758107	1265.1396437645813	3438.4388162417454	702.3143861449054	1266.8712093775516	3609.051870540607	702.0136570951277	-113.15981570124501	3563.672988119786	643.4778845364729	-363.23129950423714	3483.1468235963757	606.5420207960863	-222.8481551783502	3442.2910447505087	574.3661320746387	-39.83884787011554	3735.4687932425277	537.7468156284028	204.121027352104	3661.2880981893995	426.5331199685694	359.9598327606396	3475.7463591527467	497.26189882357005	442.08515406396594	3531.445520536476	612.0780891683694	457.052426230842	3508.3578503733142	611.2736096029543	494.8314085991498	3521.923713377855	601.9841272583493	-28.567247791168764	3508.058126677226	785.1712345915203	218.17286048565418	3397.615313529011	752.2685180088043	363.4756342571955	3403.3120512680075	586.4544397157297	424.46865090125334	3451.190134041712	504.11172222774996	448.4705563513995	3451.947600152434	501.65367557953834	467.8950694384684	3426.5088273764786	561.5969643199127
